<?xml version="1.0" encoding="iso-8859-1"?>
<!-- Generator: Adobe Illustrator 19.0.0, SVG Export Plug-In . SVG Version: 6.00 Build 0)  -->
<svg version="1.1" id="Capa_1" xmlns="http://www.w3.org/2000/svg" xmlns:xlink="http://www.w3.org/1999/xlink" x="0px" y="0px"
	 viewBox="0 0 512 512" style="enable-background:new 0 0 512 512;" xml:space="preserve">
<g>
	<g>
		<path d="M512,290.952c0-32.6-17.327-61.048-42.985-76.759l1.544-3.311c1.535-3.293,1.823-7.031,0.811-10.521l-22.224-76.566
			c-0.463-1.597-1.188-3.083-2.121-4.417l13.531-29.016c7.5,3.498,16.43,0.259,19.934-7.255c3.501-7.508,0.253-16.433-7.256-19.934
			c-12.364-5.766-96.259-44.887-108.757-50.714c-7.504-3.5-16.432-0.253-19.934,7.255c-3.501,7.508-0.253,16.433,7.255,19.934
			l-13.531,29.017c-1.621,0.142-3.226,0.543-4.747,1.214l-72.128,31.833l-72.129-31.834c-1.521-0.671-3.125-1.071-4.746-1.213
			l-13.531-29.018c7.509-3.501,10.756-12.425,7.255-19.934c-3.502-7.508-12.427-10.758-19.934-7.255
			c-13.532,6.31-96.982,45.224-108.757,50.714c-7.509,3.501-10.757,12.426-7.256,19.934c2.545,5.458,7.955,8.664,13.604,8.664
			c2.122,0,4.279-0.453,6.329-1.409l13.53,29.017c-0.933,1.333-1.657,2.819-2.12,4.416L51.413,200.36
			c-0.873,3.006-0.774,6.196,0.251,9.129C20.548,224.062,0,255.438,0,290.952c0,49.626,40.374,90,90,90v32.58
			c-17.459,6.192-30,22.865-30,42.42v30c0,8.284,6.716,15,15,15h362c8.284,0,15-6.716,15-15v-30c0-19.555-12.541-36.228-30-42.42
			v-32.58C471.626,380.952,512,340.578,512,290.952z M378.987,52.328l53.431,24.915l0.948,0.442l-12.679,27.189l-54.379-25.357
			L378.987,52.328z M90.366,77.243l53.431-24.915l12.679,27.189c-5.764,2.688-48.615,22.669-54.379,25.357L89.418,77.685
			L90.366,77.243z M100.552,138.695l82.825-38.622l61.052,26.945c3.732,1.647,7.765,2.497,11.844,2.497h10.178
			c4.118,0,8.191-0.859,11.959-2.522l60.996-26.921c8.622,4.02,73.322,34.19,82.197,38.329c0.001,0,0.003,0.001,0.004,0.002
			l0.625,0.291l18.755,64.617L385.73,321.81c-2.826-0.558-5.743-0.857-8.73-0.857h-44.107
			c58.618-123.838,55.04-116.222,55.657-117.7c2.289-5.494,3.45-11.314,3.45-17.3c0-25.057-20.418-45-45-45
			c-19.657,0-36.24,12.609-42.419,30h-97.155c-6.261-17.712-23.177-30-42.426-30c-24.457,0-45,19.878-45,45
			c0,6.718,1.449,13.187,4.308,19.229c0.001,0.002,0.002,0.005,0.003,0.008l54.795,115.763h-42.454
			c-3.486-7.476-53.221-114.135-54.856-117.64L100.552,138.695z M207.439,200.952h97.141c5.702,16.076,20.29,27.984,37.833,29.768
			l-19.251,40.671c-12.707-23.314-38.289-40.438-68.162-40.438c-26.955,0-53.072,14.834-66.35,40.042l-19.068-40.283
			C187.436,228.899,201.823,216.834,207.439,200.952z M165,200.952c-8.044,0-15-6.502-15-15c0-8.469,6.915-15,15-15
			c8.148,0,15,6.575,15,15C180,194.175,173.357,200.952,165,200.952z M332,185.952c0-8.212,6.638-15,15-15c8.148,0,15,6.575,15,15
			c0,8.243-6.648,15-15,15C338.729,200.952,332,194.223,332,185.952z M302,305.952c0,28-24.296,45-47,45c-24.227,0-45-19.614-45-45
			c0-24.477,19.694-45,45-45C280.477,260.952,302,281.56,302,305.952z M195.026,350.952c14.011,18.579,36.234,30,59.974,30
			c24.296,0,47.544-11.631,61.823-30H377c8.271,0,15,6.729,15,15v45H120v-45c0-8.271,6.729-15,15-15H195.026z M30,290.952
			c0-23.619,13.623-44.494,34.271-54.238l43.553,93.401c-6.908,5.251-12.256,12.45-15.222,20.772
			c-0.867,0.037-1.734,0.065-2.602,0.065C56.916,350.952,30,324.036,30,290.952z M422,470.952H90v-15c0-8.271,6.729-15,15-15h302
			c8.271,0,15,6.729,15,15V470.952z M419.398,350.887c-1.786-5.012-4.431-9.618-7.766-13.635l44.594-95.632
			C472.215,252.643,482,270.829,482,290.952c0,33.084-26.916,60-60,60C421.132,350.952,420.264,350.924,419.398,350.887z"/>
	</g>
</g>
<g>
	<g>
		<circle cx="255" cy="305.951" r="15"/>
	</g>
</g>
<g>
</g>
<g>
</g>
<g>
</g>
<g>
</g>
<g>
</g>
<g>
</g>
<g>
</g>
<g>
</g>
<g>
</g>
<g>
</g>
<g>
</g>
<g>
</g>
<g>
</g>
<g>
</g>
<g>
</g>
</svg>
